<svg width="157" height="44" viewBox="0 0 157 44" fill="none" xmlns="http://www.w3.org/2000/svg">
<path fill-rule="evenodd" clip-rule="evenodd" d="M9.77631 0C4.4304 0 0.0966797 4.32006 0.0966797 9.64912V34.3509C0.0966797 39.6799 4.4304 44 9.77631 44H34.5561C39.9021 44 44.2358 39.6799 44.2358 34.3509V9.64912C44.2358 4.32006 39.9021 0 34.5561 0H9.77631ZM30.6235 21.9448C32.0094 21.5801 33.2426 20.5303 33.2426 18.4196C33.2426 14.9055 30.2961 14.0878 26.5203 14.0878H11.4826V29.9123H17.812V24.5417H25.3199C26.4767 24.5417 27.1533 25.0058 27.1533 26.1551V29.9123H33.4826V25.9562C33.4826 23.8013 32.2822 22.4421 30.6235 21.9448ZM26.3714 18.509H17.8148V20.6666H26.3714V20.6659C26.3842 20.6663 26.397 20.6666 26.4099 20.6666C26.9982 20.6666 27.4752 20.1836 27.4752 19.5878C27.4752 18.992 26.9982 18.509 26.4099 18.509C26.397 18.509 26.3842 18.5092 26.3714 18.5097V18.509Z" fill="#16161A"/>
<path fill-rule="evenodd" clip-rule="evenodd" d="M131.911 25.563C131.911 30.1797 129.235 33.3575 124.695 33.3575C122.831 33.3575 121.117 32.5781 120.365 31.3789V33.1177H116.577V11.8924H120.365V19.687C121.237 18.5478 122.861 17.7684 124.755 17.7684C129.235 17.7684 131.911 20.9462 131.911 25.563ZM120.125 25.563C120.125 28.2911 121.718 30.0898 124.154 30.0898C126.559 30.0898 128.153 28.2911 128.153 25.563C128.153 22.8348 126.559 21.0361 124.154 21.0361C121.718 21.0361 120.125 22.8348 120.125 25.563Z" fill="#16161A"/>
<path fill-rule="evenodd" clip-rule="evenodd" d="M77.8919 33.1177L73.2643 23.7342C75.339 22.7149 76.5717 20.7063 76.5717 18.338C76.5717 14.5606 73.8957 12.1323 69.7765 12.1323H59.7285L59.7586 33.1177H63.8477V24.5137H69.085L73.1413 33.1177H77.8919ZM63.8477 15.6398H69.1451C71.2498 15.6398 72.4525 16.6591 72.4525 18.338C72.4525 20.0168 71.2498 21.0061 69.1451 21.0061H63.8477V15.6398Z" fill="#16161A"/>
<path fill-rule="evenodd" clip-rule="evenodd" d="M90.3349 18.0082H94.1234V33.1177H90.3349V31.3789C89.5832 32.5781 87.8994 33.3575 86.0052 33.3575C81.465 33.3575 78.7891 30.1797 78.7891 25.563C78.7891 20.9462 81.465 17.7684 85.9451 17.7684C87.8393 17.7684 89.4629 18.5478 90.3349 19.687V18.0082ZM82.5475 25.563C82.5475 28.2911 84.141 30.0898 86.5464 30.0898C88.9819 30.0898 90.5754 28.2911 90.5754 25.563C90.5754 22.8348 88.9819 21.0361 86.5464 21.0361C84.141 21.0361 82.5475 22.8348 82.5475 25.563Z" fill="#16161A"/>
<path d="M107.517 18.0082L107.277 21.6657C106.736 21.4258 106.014 21.3059 105.353 21.3059C103.218 21.3059 101.293 23.0747 101.293 27.5716V33.1177H97.505V18.0082H101.293V20.7663C102.045 19.0575 104.03 17.7684 105.864 17.7684C106.405 17.7684 107.066 17.8583 107.517 18.0082Z" fill="#16161A"/>
<path d="M113.208 33.1177H109.419V18.0082H113.208V33.1177Z" fill="#16161A"/>
<path d="M134.481 33.1177H138.269V11.8924H134.481V33.1177Z" fill="#16161A"/>
<path fill-rule="evenodd" clip-rule="evenodd" d="M155.92 25.0533C155.92 21.5457 153.425 17.7684 148.313 17.7684C143.292 17.7684 140.826 21.6357 140.826 25.563C140.826 29.4902 143.502 33.3575 148.524 33.3575C152.072 33.3575 154.717 31.6787 155.559 28.8307L152.011 27.8713C151.621 29.3403 150.358 30.1797 148.584 30.1797C146.419 30.1797 144.946 28.8307 144.615 26.5523H155.86C155.89 26.2525 155.92 25.5929 155.92 25.0533ZM144.705 23.7942C145.126 21.7556 146.449 20.6464 148.313 20.6464C150.508 20.6464 151.681 21.9954 151.861 23.7942H144.705Z" fill="#16161A"/>
<path d="M108.97 12.6713C108.97 11.7121 109.748 10.9344 110.707 10.9344H111.95C112.909 10.9344 113.687 11.7121 113.687 12.6713V13.914C113.687 14.8732 112.909 15.6508 111.95 15.6508H110.707C109.748 15.6508 108.97 14.8732 108.97 13.914V12.6713Z" fill="#16161A"/>
</svg>
